<mxfile host="app.diagrams.net" modified="2023-03-22T05:25:29.376Z" agent="5.0 (Windows NT 10.0; Win64; x64) AppleWebKit/537.36 (KHTML, like Gecko) Chrome/111.0.0.0 Safari/537.36" etag="2lHK2JgAuZSG-Pe8uNhK" version="21.0.8" type="github">
  <diagram name="第 1 页" id="p6_CcjFaAbd17a5zXBP8">
    <mxGraphModel dx="1235" dy="1158" grid="0" gridSize="10" guides="1" tooltips="1" connect="1" arrows="1" fold="1" page="0" pageScale="1" pageWidth="827" pageHeight="1169" math="0" shadow="0">
      <root>
        <mxCell id="0" />
        <mxCell id="1" parent="0" />
        <mxCell id="CxpHUTLvTEu1nHUiymsm-3" style="edgeStyle=orthogonalEdgeStyle;orthogonalLoop=1;jettySize=auto;html=1;exitX=0.5;exitY=1;exitDx=0;exitDy=0;curved=1;sketch=1;curveFitting=1;jiggle=2;" edge="1" parent="1" source="CxpHUTLvTEu1nHUiymsm-1" target="CxpHUTLvTEu1nHUiymsm-2">
          <mxGeometry relative="1" as="geometry" />
        </mxCell>
        <mxCell id="CxpHUTLvTEu1nHUiymsm-1" value="&lt;font&gt;蓝牙登录信号&lt;/font&gt;" style="rounded=1;whiteSpace=wrap;html=1;fillColor=#f5f5f5;fontColor=#333333;strokeColor=#666666;sketch=1;curveFitting=1;jiggle=2;fillStyle=solid;fontFamily=Comic Sans MS;" vertex="1" parent="1">
          <mxGeometry x="198" y="103" width="120" height="60" as="geometry" />
        </mxCell>
        <mxCell id="CxpHUTLvTEu1nHUiymsm-11" style="edgeStyle=orthogonalEdgeStyle;orthogonalLoop=1;jettySize=auto;html=1;exitX=1;exitY=0.5;exitDx=0;exitDy=0;entryX=0;entryY=0.5;entryDx=0;entryDy=0;curved=1;sketch=1;curveFitting=1;jiggle=2;" edge="1" parent="1" source="CxpHUTLvTEu1nHUiymsm-2" target="CxpHUTLvTEu1nHUiymsm-9">
          <mxGeometry relative="1" as="geometry" />
        </mxCell>
        <mxCell id="CxpHUTLvTEu1nHUiymsm-12" value="是" style="edgeLabel;html=1;align=center;verticalAlign=middle;resizable=0;points=[];" vertex="1" connectable="0" parent="CxpHUTLvTEu1nHUiymsm-11">
          <mxGeometry x="-0.2703" relative="1" as="geometry">
            <mxPoint y="1" as="offset" />
          </mxGeometry>
        </mxCell>
        <mxCell id="CxpHUTLvTEu1nHUiymsm-22" style="edgeStyle=orthogonalEdgeStyle;orthogonalLoop=1;jettySize=auto;html=1;exitX=0;exitY=0.5;exitDx=0;exitDy=0;entryX=0;entryY=0.5;entryDx=0;entryDy=0;curved=1;sketch=1;curveFitting=1;jiggle=2;" edge="1" parent="1" source="CxpHUTLvTEu1nHUiymsm-2" target="CxpHUTLvTEu1nHUiymsm-4">
          <mxGeometry relative="1" as="geometry">
            <Array as="points">
              <mxPoint x="112" y="257" />
              <mxPoint x="112" y="710" />
            </Array>
          </mxGeometry>
        </mxCell>
        <mxCell id="CxpHUTLvTEu1nHUiymsm-30" value="否" style="edgeLabel;html=1;align=center;verticalAlign=middle;resizable=0;points=[];" vertex="1" connectable="0" parent="CxpHUTLvTEu1nHUiymsm-22">
          <mxGeometry x="-0.6267" y="24" relative="1" as="geometry">
            <mxPoint as="offset" />
          </mxGeometry>
        </mxCell>
        <mxCell id="CxpHUTLvTEu1nHUiymsm-2" value="UserId是否缓存过？" style="rhombus;whiteSpace=wrap;html=1;fillColor=#ffe6cc;strokeColor=#d79b00;rounded=0;shadow=0;sketch=1;curveFitting=1;jiggle=2;fillStyle=solid;fontFamily=Comic Sans MS;" vertex="1" parent="1">
          <mxGeometry x="189" y="222" width="138" height="69" as="geometry" />
        </mxCell>
        <mxCell id="CxpHUTLvTEu1nHUiymsm-4" value="&lt;font&gt;结束&lt;/font&gt;" style="rounded=1;whiteSpace=wrap;html=1;fillColor=#e1d5e7;strokeColor=#9673a6;sketch=1;curveFitting=1;jiggle=2;fillStyle=solid;fontFamily=Comic Sans MS;" vertex="1" parent="1">
          <mxGeometry x="195" y="680" width="120" height="60" as="geometry" />
        </mxCell>
        <mxCell id="CxpHUTLvTEu1nHUiymsm-14" value="否" style="edgeStyle=orthogonalEdgeStyle;orthogonalLoop=1;jettySize=auto;html=1;exitX=0.5;exitY=1;exitDx=0;exitDy=0;entryX=0.5;entryY=0;entryDx=0;entryDy=0;curved=1;sketch=1;curveFitting=1;jiggle=2;" edge="1" parent="1" source="CxpHUTLvTEu1nHUiymsm-9" target="CxpHUTLvTEu1nHUiymsm-15">
          <mxGeometry relative="1" as="geometry">
            <mxPoint x="472" y="348" as="targetPoint" />
          </mxGeometry>
        </mxCell>
        <mxCell id="CxpHUTLvTEu1nHUiymsm-24" value="是" style="edgeStyle=orthogonalEdgeStyle;orthogonalLoop=1;jettySize=auto;html=1;exitX=1;exitY=0.5;exitDx=0;exitDy=0;sketch=1;curveFitting=1;jiggle=2;curved=1;" edge="1" parent="1" source="CxpHUTLvTEu1nHUiymsm-9" target="CxpHUTLvTEu1nHUiymsm-23">
          <mxGeometry relative="1" as="geometry" />
        </mxCell>
        <mxCell id="CxpHUTLvTEu1nHUiymsm-9" value="当前已登录？" style="rhombus;whiteSpace=wrap;html=1;fillColor=#fff2cc;strokeColor=#d6b656;rounded=0;shadow=0;sketch=1;curveFitting=1;jiggle=2;fillStyle=solid;fontFamily=Comic Sans MS;" vertex="1" parent="1">
          <mxGeometry x="401" y="222" width="138" height="69" as="geometry" />
        </mxCell>
        <mxCell id="CxpHUTLvTEu1nHUiymsm-21" style="edgeStyle=orthogonalEdgeStyle;orthogonalLoop=1;jettySize=auto;html=1;exitX=0.5;exitY=1;exitDx=0;exitDy=0;entryX=0.5;entryY=0;entryDx=0;entryDy=0;curved=1;sketch=1;curveFitting=1;jiggle=2;" edge="1" parent="1" source="CxpHUTLvTEu1nHUiymsm-15" target="CxpHUTLvTEu1nHUiymsm-4">
          <mxGeometry relative="1" as="geometry" />
        </mxCell>
        <mxCell id="CxpHUTLvTEu1nHUiymsm-15" value="&lt;font&gt;登录&lt;/font&gt;" style="rounded=1;whiteSpace=wrap;html=1;fillColor=#d5e8d4;strokeColor=#82b366;sketch=1;curveFitting=1;jiggle=2;fillStyle=solid;fontFamily=Comic Sans MS;" vertex="1" parent="1">
          <mxGeometry x="195" y="556" width="120" height="60" as="geometry" />
        </mxCell>
        <mxCell id="CxpHUTLvTEu1nHUiymsm-26" value="否" style="edgeStyle=orthogonalEdgeStyle;orthogonalLoop=1;jettySize=auto;html=1;exitX=0.5;exitY=1;exitDx=0;exitDy=0;curved=1;sketch=1;curveFitting=1;jiggle=2;" edge="1" parent="1" source="CxpHUTLvTEu1nHUiymsm-23" target="CxpHUTLvTEu1nHUiymsm-25">
          <mxGeometry relative="1" as="geometry" />
        </mxCell>
        <mxCell id="CxpHUTLvTEu1nHUiymsm-28" style="edgeStyle=orthogonalEdgeStyle;orthogonalLoop=1;jettySize=auto;html=1;exitX=1;exitY=0.5;exitDx=0;exitDy=0;entryX=1;entryY=0.5;entryDx=0;entryDy=0;curved=1;sketch=1;curveFitting=1;jiggle=2;" edge="1" parent="1" source="CxpHUTLvTEu1nHUiymsm-23" target="CxpHUTLvTEu1nHUiymsm-4">
          <mxGeometry relative="1" as="geometry" />
        </mxCell>
        <mxCell id="CxpHUTLvTEu1nHUiymsm-29" value="是" style="edgeLabel;html=1;align=center;verticalAlign=middle;resizable=0;points=[];" vertex="1" connectable="0" parent="CxpHUTLvTEu1nHUiymsm-28">
          <mxGeometry x="-0.8799" y="-7" relative="1" as="geometry">
            <mxPoint as="offset" />
          </mxGeometry>
        </mxCell>
        <mxCell id="CxpHUTLvTEu1nHUiymsm-23" value="用户是否相同？" style="rhombus;whiteSpace=wrap;html=1;fillColor=#f8cecc;strokeColor=#b85450;rounded=0;shadow=0;sketch=1;curveFitting=1;jiggle=2;fillStyle=solid;fontFamily=Comic Sans MS;" vertex="1" parent="1">
          <mxGeometry x="608" y="222" width="138" height="69" as="geometry" />
        </mxCell>
        <mxCell id="CxpHUTLvTEu1nHUiymsm-27" style="edgeStyle=orthogonalEdgeStyle;orthogonalLoop=1;jettySize=auto;html=1;exitX=0.5;exitY=1;exitDx=0;exitDy=0;entryX=1;entryY=0.5;entryDx=0;entryDy=0;curved=1;sketch=1;curveFitting=1;jiggle=2;" edge="1" parent="1" source="CxpHUTLvTEu1nHUiymsm-25" target="CxpHUTLvTEu1nHUiymsm-15">
          <mxGeometry relative="1" as="geometry" />
        </mxCell>
        <mxCell id="CxpHUTLvTEu1nHUiymsm-25" value="&lt;font&gt;当前用户登出&lt;/font&gt;" style="rounded=1;whiteSpace=wrap;html=1;fillColor=#b0e3e6;strokeColor=#0e8088;sketch=1;curveFitting=1;jiggle=2;fillStyle=solid;fontFamily=Comic Sans MS;" vertex="1" parent="1">
          <mxGeometry x="617" y="361" width="120" height="60" as="geometry" />
        </mxCell>
        <mxCell id="CxpHUTLvTEu1nHUiymsm-31" value="是否存在优先级的区别？&lt;br&gt;主动登录、蓝牙登录、自动登录" style="shape=callout;whiteSpace=wrap;html=1;perimeter=calloutPerimeter;sketch=1;curveFitting=1;jiggle=2;flipH=0;flipV=0;direction=south;size=55;position=0.2;position2=0;base=28;fontFamily=Comic Sans MS;fillColor=#b0e3e6;strokeColor=#0e8088;" vertex="1" parent="1">
          <mxGeometry x="739" y="410" width="252" height="71" as="geometry" />
        </mxCell>
        <mxCell id="CxpHUTLvTEu1nHUiymsm-32" value="&lt;font&gt;蓝牙登录信号&lt;/font&gt;" style="rounded=1;whiteSpace=wrap;html=1;fillColor=#f5f5f5;fontColor=#333333;strokeColor=#666666;sketch=1;curveFitting=1;jiggle=2;fillStyle=solid;fontFamily=Comic Sans MS;" vertex="1" parent="1">
          <mxGeometry x="189" y="900" width="120" height="60" as="geometry" />
        </mxCell>
        <mxCell id="CxpHUTLvTEu1nHUiymsm-35" style="edgeStyle=orthogonalEdgeStyle;orthogonalLoop=1;jettySize=auto;html=1;exitX=0.5;exitY=1;exitDx=0;exitDy=0;curved=1;sketch=1;curveFitting=1;jiggle=2;" edge="1" parent="1" source="CxpHUTLvTEu1nHUiymsm-33" target="CxpHUTLvTEu1nHUiymsm-1">
          <mxGeometry relative="1" as="geometry" />
        </mxCell>
        <mxCell id="CxpHUTLvTEu1nHUiymsm-33" value="主动获取信号" style="rounded=1;whiteSpace=wrap;html=1;fillColor=#bac8d3;strokeColor=#23445d;sketch=1;curveFitting=1;jiggle=2;fillStyle=solid;fontFamily=Comic Sans MS;" vertex="1" parent="1">
          <mxGeometry x="123" y="-69" width="120" height="60" as="geometry" />
        </mxCell>
        <mxCell id="CxpHUTLvTEu1nHUiymsm-36" style="edgeStyle=orthogonalEdgeStyle;orthogonalLoop=1;jettySize=auto;html=1;exitX=0.5;exitY=1;exitDx=0;exitDy=0;entryX=0.5;entryY=0;entryDx=0;entryDy=0;curved=1;sketch=1;curveFitting=1;jiggle=2;" edge="1" parent="1" source="CxpHUTLvTEu1nHUiymsm-34" target="CxpHUTLvTEu1nHUiymsm-1">
          <mxGeometry relative="1" as="geometry" />
        </mxCell>
        <mxCell id="CxpHUTLvTEu1nHUiymsm-34" value="&lt;font&gt;信号更改回调&lt;/font&gt;" style="rounded=1;whiteSpace=wrap;html=1;fillColor=#bac8d3;strokeColor=#23445d;sketch=1;curveFitting=1;jiggle=2;fillStyle=solid;fontFamily=Comic Sans MS;" vertex="1" parent="1">
          <mxGeometry x="318" y="-69" width="120" height="60" as="geometry" />
        </mxCell>
      </root>
    </mxGraphModel>
  </diagram>
</mxfile>
